<svg id="visual" viewBox="0 0 900 600" width="900" height="600" xmlns="http://www.w3.org/2000/svg" xmlns:xlink="http://www.w3.org/1999/xlink" version="1.1"><rect x="0" y="0" width="900" height="600" fill="#ffffff"></rect><path d="M0 390L129 412L257 383L386 365L514 386L643 377L771 411L900 414L900 601L771 601L643 601L514 601L386 601L257 601L129 601L0 601Z" fill="#b7acff"></path><path d="M0 418L129 428L257 460L386 436L514 425L643 391L771 396L900 405L900 601L771 601L643 601L514 601L386 601L257 601L129 601L0 601Z" fill="#c6a1f7"></path><path d="M0 417L129 463L257 419L386 475L514 421L643 480L771 418L900 428L900 601L771 601L643 601L514 601L386 601L257 601L129 601L0 601Z" fill="#d596ec"></path><path d="M0 452L129 454L257 479L386 455L514 468L643 464L771 457L900 497L900 601L771 601L643 601L514 601L386 601L257 601L129 601L0 601Z" fill="#e38ade"></path><path d="M0 531L129 491L257 517L386 479L514 512L643 491L771 503L900 501L900 601L771 601L643 601L514 601L386 601L257 601L129 601L0 601Z" fill="#ef7dcd"></path><path d="M0 536L129 513L257 535L386 554L514 526L643 549L771 549L900 532L900 601L771 601L643 601L514 601L386 601L257 601L129 601L0 601Z" fill="#f871b9"></path><path d="M0 558L129 559L257 555L386 561L514 549L643 580L771 575L900 561L900 601L771 601L643 601L514 601L386 601L257 601L129 601L0 601Z" fill="#ff65a3"></path></svg>