<svg id="visual" viewBox="0 0 900 600" width="900" height="600" xmlns="http://www.w3.org/2000/svg" xmlns:xlink="http://www.w3.org/1999/xlink" version="1.1"><rect x="0" y="0" width="900" height="600" fill="#fffefe"></rect><path d="M0 372L129 356L257 411L386 382L514 381L643 361L771 437L900 363L900 601L771 601L643 601L514 601L386 601L257 601L129 601L0 601Z" fill="#c4bbff"></path><path d="M0 445L129 400L257 419L386 406L514 456L643 433L771 410L900 454L900 601L771 601L643 601L514 601L386 601L257 601L129 601L0 601Z" fill="#f2b3df"></path><path d="M0 473L129 510L257 483L386 489L514 494L643 490L771 488L900 495L900 601L771 601L643 601L514 601L386 601L257 601L129 601L0 601Z" fill="#ffb6bc"></path><path d="M0 528L129 539L257 481L386 539L514 535L643 526L771 509L900 513L900 601L771 601L643 601L514 601L386 601L257 601L129 601L0 601Z" fill="#ffcb92"></path><path d="M0 569L129 553L257 557L386 560L514 558L643 571L771 570L900 573L900 601L771 601L643 601L514 601L386 601L257 601L129 601L0 601Z" fill="#fff972"></path></svg>