<svg id="visual" viewBox="0 0 960 540" width="960" height="540" xmlns="http://www.w3.org/2000/svg" xmlns:xlink="http://www.w3.org/1999/xlink" version="1.1"><rect x="0" y="0" width="960" height="540" fill="#ffffff"></rect><path d="M0 165L12.3 143.5C24.7 122 49.3 79 74 72.7C98.7 66.3 123.3 96.7 148 97.2C172.7 97.7 197.3 68.3 221.8 75.2C246.3 82 270.7 125 295.2 131.8C319.7 138.7 344.3 109.3 369 113.5C393.7 117.7 418.3 155.3 443 159C467.7 162.7 492.3 132.3 517 104.8C541.7 77.3 566.3 52.7 591 55.8C615.7 59 640.3 90 664.8 106.7C689.3 123.3 713.7 125.7 738.2 109.2C762.7 92.7 787.3 57.3 812 46C836.7 34.7 861.3 47.3 886 49.2C910.7 51 935.3 42 947.7 37.5L960 33L960 0L947.7 0C935.3 0 910.7 0 886 0C861.3 0 836.7 0 812 0C787.3 0 762.7 0 738.2 0C713.7 0 689.3 0 664.8 0C640.3 0 615.7 0 591 0C566.3 0 541.7 0 517 0C492.3 0 467.7 0 443 0C418.3 0 393.7 0 369 0C344.3 0 319.7 0 295.2 0C270.7 0 246.3 0 221.8 0C197.3 0 172.7 0 148 0C123.3 0 98.7 0 74 0C49.3 0 24.7 0 12.3 0L0 0Z" fill="#4f00c6"></path></svg>