<svg id="Capa_1" data-name="Capa 1" xmlns="http://www.w3.org/2000/svg" viewBox="0 0 229.2 247.4"><path d="M97,143.8c-2.6-35.6,18.1-71.9,50-87.8a19.4,19.4,0,0,0-15.1-1.5C151,39.7,177,38.2,201.2,37.4c-1-6-5.6-11.1-11.1-14s-11.7-3.9-17.8-4.6c-18.8-2-38.3-.5-55.9,6.5S83,44.9,74.5,61.8c-10.4,20.6-9.5,44.9-7.9,68C55.1,121.6,51.7,105.6,54,91.6s9-26.7,14-39.9c.9-2.3,1.4-5.6-.7-6.9s-4.2.3-5.9,1.7c-14,11.4-25,26.6-30.5,43.7s-5.1,36.4,2.1,52.9c8.3,18.8,25.1,33.2,44.2,41s40.3,9.4,60.8,7.3c-11.3-5.4-22.7-10.9-31.9-19.4s-16-20.5-15.2-33" transform="translate(-27.1 -18)" style="fill:#fefe00"/><path d="M154.6,50.2c17.8-2.8,36.5-1.4,53.2,5.5S239,75.1,247.1,91.2c6.8,13.9,8.7,29.6,9.2,45.1s-.7,29.5-9,41.1a196.4,196.4,0,0,0-11.1-43.9c-4.7-12.5-11-24.9-21.2-33.6-8.4-7.2-18.9-11.4-29.6-13.8a105.7,105.7,0,0,0-68.9,8c-1.4-3.6,1.4-7.5,4.2-10.2A77.7,77.7,0,0,1,165.1,63a13.6,13.6,0,0,0,5.6-1.4c1.7-.9,2.9-3,2.3-4.8a5.6,5.6,0,0,0-3.3-2.9,27.5,27.5,0,0,0-17.4-2.1" transform="translate(-27.1 -18)" style="fill:#4500a9"/><path d="M183.2,168.2c-6.7,15.1-21.7,25.4-37.6,29.8s-32.8,3.5-49.2,1.2c-1.6-.2-3.4-.4-4.6.6s-.9,3.6.7,3.6c-10.9,3.1-22.8-1.2-31.9-8.1s-15.9-16.2-23.2-24.8c-1.4-1.7-3.5-3.6-5.6-2.7s-2.1,2.9-2.2,4.8c-.5,10.9,3.9,21.6,10,30.8,16.9,25,48,39.9,78,37s57.9-23.7,68.9-51.8c3.7-9.4,5.7-19.8,3.9-29.8l-11.3,15.5" transform="translate(-27.1 -18)" style="fill:#c4124b"/><path d="M182.8,104.1c12.4,1.1,23.7,8.5,31.3,18.4s11.8,21.9,14.1,34.1a125.4,125.4,0,0,1-3.1,59.6c1.5-1.5.1-4.4-2-4.8s-4,1.3-5,3.1-1.2,4.1-1.6,6.1c-1.6,8.3-6.6,15.7-12.9,21.3s-13.8,9.5-21.6,12.8a143.5,143.5,0,0,1-69.8,9.9c-2.9-.3-6.6-1.8-6.1-4.7s2-2.7,3.6-3.4c17.7-8.3,36.6-14.2,53.9-23.4s33.4-22.7,40.5-40.9c5.8-14.8,5.1-31.5.4-46.6s-13.2-28.8-22.8-41.3" transform="translate(-27.1 -18)" style="fill:#c4124b"/></svg>